# Blender v2.78 (sub 0) OBJ File: ''
# www.blender.org
mtllib DoorFrame.mtl
o Cube
v -0.441431 1.736474 -0.054126
v -0.441431 1.736474 -0.198560
v -0.441431 1.865872 -0.054126
v -0.441431 1.865872 -0.198560
v -0.598256 1.424528 -0.054126
v -0.598256 1.424528 -0.198560
v -0.598256 1.865872 -0.054126
v -0.598256 1.865872 -0.198560
v -0.441431 0.017906 -0.054126
v -0.441431 0.017906 -0.198560
v -0.598256 0.017906 -0.054126
v -0.598256 0.017906 -0.198560
v 0.000000 1.736474 -0.198560
v 0.000000 1.736474 -0.054126
v 0.441431 1.736474 -0.054126
v 0.441431 1.736474 -0.198560
v 0.000000 1.865872 -0.198560
v 0.000000 1.865872 -0.054126
v 0.441431 1.865872 -0.054126
v 0.441431 1.865872 -0.198560
v 0.598256 1.424528 -0.054126
v 0.598256 1.424528 -0.198560
v 0.598256 1.865872 -0.054126
v 0.598256 1.865872 -0.198560
v 0.441431 0.017906 -0.054126
v 0.441431 0.017906 -0.198560
v 0.598256 0.017906 -0.054126
v 0.598256 0.017906 -0.198560
vn 0.0000 -1.0000 -0.0000
vn 0.0000 1.0000 0.0000
vn -0.0000 -0.0000 1.0000
vn 0.0000 0.0000 -1.0000
vn -1.0000 -0.0000 -0.0000
vn 1.0000 0.0000 0.0000
usemtl Material
s off
f 13//1 14//1 1//1 2//1
f 17//2 4//2 3//2 18//2
f 14//3 18//3 3//3 1//3
f 3//2 4//2 8//2 7//2
f 17//4 13//4 2//4 4//4
f 5//5 7//5 8//5 6//5
f 4//4 2//4 6//4 8//4
f 6//4 2//4 10//4 12//4
f 1//3 3//3 7//3 5//3
f 10//1 9//1 11//1 12//1
f 2//6 1//6 9//6 10//6
f 5//5 6//5 12//5 11//5
f 1//3 5//3 11//3 9//3
f 13//1 16//1 15//1 14//1
f 17//2 18//2 19//2 20//2
f 13//5 14//5 18//5 17//5
f 14//3 15//3 19//3 18//3
f 19//2 23//2 24//2 20//2
f 17//4 20//4 16//4 13//4
f 21//6 22//6 24//6 23//6
f 20//4 24//4 22//4 16//4
f 22//4 28//4 26//4 16//4
f 15//3 21//3 23//3 19//3
f 26//1 28//1 27//1 25//1
f 16//5 26//5 25//5 15//5
f 21//6 27//6 28//6 22//6
f 15//3 25//3 27//3 21//3
