# Blender v2.78 (sub 0) OBJ File: ''
# www.blender.org
mtllib Locker.mtl
o Cube
v 1.000000 0.039327 -0.146540
v 1.000000 0.039327 1.000000
v -1.000000 0.039327 1.000000
v -1.000000 0.039327 -0.146540
v 1.000000 8.087914 -0.146539
v 0.999999 8.087914 1.000001
v -1.000000 8.087914 1.000000
v -1.000000 8.087914 -0.146540
v 0.818182 0.039327 -0.146540
v 0.636364 0.039327 -0.146540
v 0.454546 0.039327 -0.146540
v 0.272727 0.039327 -0.146540
v 0.090909 0.039327 -0.146540
v -0.090909 0.039327 -0.146540
v -0.272727 0.039327 -0.146540
v -0.454545 0.039327 -0.146540
v -0.636363 0.039327 -0.146540
v -0.818182 0.039327 -0.146540
v 1.000000 0.771017 -0.146540
v 1.000000 1.502706 -0.146540
v 1.000000 2.234396 -0.146540
v 1.000000 2.966086 -0.146540
v 1.000000 3.697775 -0.146540
v 1.000000 4.429465 -0.146540
v 1.000000 5.161155 -0.146540
v 1.000000 5.892845 -0.146540
v 1.000000 6.624534 -0.146539
v 1.000000 7.356224 -0.146539
v -1.000000 0.771017 -0.146540
v -1.000000 1.502706 -0.146540
v -1.000000 2.234396 -0.146540
v -1.000000 2.966086 -0.146540
v -1.000000 3.697775 -0.146540
v -1.000000 4.429465 -0.146540
v -1.000000 5.161155 -0.146540
v -1.000000 5.892845 -0.146540
v -1.000000 6.624534 -0.146540
v -1.000000 7.356224 -0.146540
v 0.818182 8.087914 -0.146539
v 0.636364 8.087914 -0.146539
v 0.454546 8.087914 -0.146540
v 0.272728 8.087914 -0.146540
v 0.090909 8.087914 -0.146540
v -0.090909 8.087914 -0.146540
v -0.272727 8.087914 -0.146540
v -0.454545 8.087914 -0.146540
v -0.636364 8.087914 -0.146540
v -0.818182 8.087914 -0.146540
v 0.818182 7.356224 -0.146539
v 0.636364 7.356224 -0.146540
v 0.454546 7.356224 -0.146540
v 0.272728 7.356224 -0.146540
v 0.090909 7.356224 -0.146540
v -0.090909 7.356224 -0.146540
v -0.272727 7.356224 -0.146540
v -0.454545 7.356224 -0.146540
v -0.636364 7.356224 -0.146540
v -0.818182 7.356224 -0.146540
v 0.818182 6.624534 -0.146540
v 0.636364 6.624534 -0.146540
v 0.454546 6.624534 -0.146540
v 0.272728 6.624534 -0.146540
v 0.090909 6.624534 -0.146540
v -0.090909 6.624534 -0.146540
v -0.272727 6.624534 -0.146540
v -0.454545 6.624534 -0.146540
v -0.636364 6.624534 -0.146540
v -0.818182 6.624534 -0.146540
v 0.818182 5.892845 -0.146540
v 0.636364 5.892845 -0.146540
v 0.454546 5.892845 -0.146540
v 0.272727 5.892845 -0.146540
v 0.090909 5.892845 -0.146540
v -0.090909 5.892845 -0.146540
v -0.272727 5.892845 -0.146540
v -0.454545 5.892845 -0.146540
v -0.636364 5.892845 -0.146540
v -0.818182 5.892845 -0.146540
v 0.818182 5.161155 -0.146540
v 0.636364 5.161155 -0.146540
v 0.454546 5.161155 -0.146540
v 0.272727 5.161155 -0.146540
v 0.090909 5.161155 -0.146540
v -0.090909 5.161155 -0.146540
v -0.272727 5.161155 -0.146540
v -0.454545 5.161155 -0.146540
v -0.636363 5.161155 -0.146540
v -0.818182 5.161155 -0.146540
v 0.818182 4.429465 -0.146540
v 0.636364 4.429465 -0.146540
v 0.454546 4.429465 -0.146540
v 0.272727 4.429465 -0.146540
v 0.090909 4.429465 -0.146540
v -0.090909 4.429465 -0.146540
v -0.272727 4.429465 -0.146540
v -0.454545 4.429465 -0.146540
v -0.636363 4.429465 -0.146540
v -0.818182 4.429465 -0.146540
v 0.818182 3.697775 -0.146540
v 0.636364 3.697775 -0.146540
v 0.454546 3.697775 -0.146540
v 0.272727 3.697775 -0.146540
v 0.090909 3.697775 -0.146540
v -0.090909 3.697775 -0.146540
v -0.272727 3.697775 -0.146540
v -0.454545 3.697775 -0.146540
v -0.636363 3.697775 -0.146540
v -0.818182 3.697775 -0.146540
v 0.818182 2.966086 -0.146540
v 0.636364 2.966086 -0.146540
v 0.454545 2.966086 -0.146540
v 0.272727 2.966086 -0.146540
v 0.090909 2.966086 -0.146540
v -0.090909 2.966086 -0.146540
v -0.272727 2.966086 -0.146540
v -0.454545 2.966086 -0.146540
v -0.636364 2.966086 -0.146540
v -0.818182 2.966086 -0.146540
v 0.818182 2.234396 -0.146540
v 0.636364 2.234396 -0.146540
v 0.454545 2.234396 -0.146540
v 0.272727 2.234396 -0.146540
v 0.090909 2.234396 -0.146540
v -0.090909 2.234396 -0.146540
v -0.272727 2.234396 -0.146540
v -0.454545 2.234396 -0.146540
v -0.636363 2.234396 -0.146540
v -0.818182 2.234396 -0.146540
v 0.818182 1.502706 -0.146540
v 0.636364 1.502706 -0.146540
v 0.454546 1.502706 -0.146540
v 0.272727 1.502706 -0.146540
v 0.090909 1.502706 -0.146540
v -0.090909 1.502706 -0.146540
v -0.272727 1.502706 -0.146540
v -0.454545 1.502706 -0.146540
v -0.636363 1.502706 -0.146540
v -0.818182 1.502706 -0.146540
v 0.818182 0.771017 -0.146540
v 0.636364 0.771017 -0.146540
v 0.454546 0.771017 -0.146540
v 0.272727 0.771017 -0.146540
v 0.090909 0.771017 -0.146540
v -0.090909 0.771017 -0.146540
v -0.272727 0.771017 -0.146540
v -0.454545 0.771017 -0.146540
v -0.636363 0.771017 -0.146540
v -0.818182 0.771017 -0.146540
v 1.000000 6.258689 -0.146539
v -1.000000 6.258689 -0.146540
v 0.818182 6.258689 -0.146540
v 0.636364 6.258689 -0.146540
v 0.454546 6.258689 -0.146540
v 0.272728 6.258689 -0.146540
v 0.090909 6.258689 -0.146540
v -0.090909 6.258689 -0.146540
v -0.272727 6.258689 -0.146540
v -0.454545 6.258689 -0.146540
v -0.636364 6.258689 -0.146540
v -0.818182 6.258689 -0.146540
v 1.000000 6.441612 -0.146539
v -1.000000 6.441612 -0.146540
v 0.818182 6.441612 -0.146540
v 0.636364 6.441612 -0.146540
v 0.360489 6.441612 -0.146540
v 0.216293 6.441612 -0.146540
v 0.072098 6.441612 -0.146540
v -0.072097 6.441612 -0.146540
v -0.216293 6.441612 -0.146540
v -0.360488 6.441612 -0.146540
v -0.636364 6.441612 -0.146540
v -0.818182 6.441612 -0.146540
v 0.454546 6.258689 -0.212073
v 0.272728 6.258689 -0.212073
v 0.090909 6.258689 -0.212073
v -0.090909 6.258689 -0.212074
v -0.272727 6.258689 -0.212074
v -0.454545 6.258689 -0.212074
v 0.818182 5.161155 -0.090981
v 0.636364 5.161155 -0.090981
v 0.818182 4.429465 -0.090981
v 0.636364 4.429465 -0.090981
vn 0.0000 -1.0000 -0.0000
vn 0.0000 1.0000 0.0000
vn 1.0000 0.0000 0.0000
vn -0.0000 -0.0000 1.0000
vn -1.0000 -0.0000 -0.0000
vn 0.0000 0.0000 -1.0000
vn -0.0000 -0.3373 0.9414
vn 0.8893 -0.4573 0.0000
vn -0.8893 -0.4573 0.0000
usemtl Material
s off
f 1//1 2//1 3//1 4//1 18//1 17//1 16//1 15//1 14//1 13//1 12//1 11//1 10//1 9//1
f 5//2 39//2 40//2 41//2 42//2 43//2 44//2 45//2 46//2 47//2 48//2 8//2 7//2 6//2
f 1//3 19//3 20//3 21//3 22//3 23//3 24//3 25//3 26//3 149//3 161//3 27//3 28//3 5//3 6//3 2//3
f 2//4 6//4 7//4 3//4
f 3//5 7//5 8//5 38//5 37//5 162//5 150//5 36//5 35//5 34//5 33//5 32//5 31//5 30//5 29//5 4//5
f 148//6 18//6 4//6 29//6
f 48//6 58//6 38//6 8//6
f 58//6 68//6 37//6 38//6
f 160//6 78//6 36//6 150//6
f 78//6 88//6 35//6 36//6
f 88//6 98//6 34//6 35//6
f 98//6 108//6 33//6 34//6
f 108//6 118//6 32//6 33//6
f 118//6 128//6 31//6 32//6
f 128//6 138//6 30//6 31//6
f 138//6 148//6 29//6 30//6
f 5//6 28//6 49//6 39//6
f 39//6 49//6 50//6 40//6
f 40//6 50//6 51//6 41//6
f 41//6 51//6 52//6 42//6
f 42//6 52//6 53//6 43//6
f 43//6 53//6 54//6 44//6
f 44//6 54//6 55//6 45//6
f 45//6 55//6 56//6 46//6
f 46//6 56//6 57//6 47//6
f 47//6 57//6 58//6 48//6
f 28//6 27//6 59//6 49//6
f 49//6 59//6 60//6 50//6
f 50//6 60//6 61//6 51//6
f 51//6 61//6 62//6 52//6
f 52//6 62//6 63//6 53//6
f 53//6 63//6 64//6 54//6
f 54//6 64//6 65//6 55//6
f 55//6 65//6 66//6 56//6
f 56//6 66//6 67//6 57//6
f 57//6 67//6 68//6 58//6
f 149//6 26//6 69//6 151//6
f 151//6 69//6 70//6 152//6
f 152//6 70//6 71//6 153//6
f 153//6 71//6 72//6 154//6
f 154//6 72//6 73//6 155//6
f 155//6 73//6 74//6 156//6
f 156//6 74//6 75//6 157//6
f 157//6 75//6 76//6 158//6
f 158//6 76//6 77//6 159//6
f 159//6 77//6 78//6 160//6
f 26//6 25//6 79//6 69//6
f 69//6 79//6 80//6 70//6
f 70//6 80//6 81//6 71//6
f 71//6 81//6 82//6 72//6
f 72//6 82//6 83//6 73//6
f 73//6 83//6 84//6 74//6
f 74//6 84//6 85//6 75//6
f 75//6 85//6 86//6 76//6
f 76//6 86//6 87//6 77//6
f 77//6 87//6 88//6 78//6
f 25//6 24//6 89//6 79//6
f 90//3 80//3 180//3 182//3
f 80//6 90//6 91//6 81//6
f 81//6 91//6 92//6 82//6
f 82//6 92//6 93//6 83//6
f 83//6 93//6 94//6 84//6
f 84//6 94//6 95//6 85//6
f 85//6 95//6 96//6 86//6
f 86//6 96//6 97//6 87//6
f 87//6 97//6 98//6 88//6
f 24//6 23//6 99//6 89//6
f 89//6 99//6 100//6 90//6
f 90//6 100//6 101//6 91//6
f 91//6 101//6 102//6 92//6
f 92//6 102//6 103//6 93//6
f 93//6 103//6 104//6 94//6
f 94//6 104//6 105//6 95//6
f 95//6 105//6 106//6 96//6
f 96//6 106//6 107//6 97//6
f 97//6 107//6 108//6 98//6
f 23//6 22//6 109//6 99//6
f 99//6 109//6 110//6 100//6
f 100//6 110//6 111//6 101//6
f 101//6 111//6 112//6 102//6
f 102//6 112//6 113//6 103//6
f 103//6 113//6 114//6 104//6
f 104//6 114//6 115//6 105//6
f 105//6 115//6 116//6 106//6
f 106//6 116//6 117//6 107//6
f 107//6 117//6 118//6 108//6
f 22//6 21//6 119//6 109//6
f 109//6 119//6 120//6 110//6
f 110//6 120//6 121//6 111//6
f 111//6 121//6 122//6 112//6
f 112//6 122//6 123//6 113//6
f 113//6 123//6 124//6 114//6
f 114//6 124//6 125//6 115//6
f 115//6 125//6 126//6 116//6
f 116//6 126//6 127//6 117//6
f 117//6 127//6 128//6 118//6
f 21//6 20//6 129//6 119//6
f 119//6 129//6 130//6 120//6
f 120//6 130//6 131//6 121//6
f 121//6 131//6 132//6 122//6
f 122//6 132//6 133//6 123//6
f 123//6 133//6 134//6 124//6
f 124//6 134//6 135//6 125//6
f 125//6 135//6 136//6 126//6
f 126//6 136//6 137//6 127//6
f 127//6 137//6 138//6 128//6
f 20//6 19//6 139//6 129//6
f 129//6 139//6 140//6 130//6
f 130//6 140//6 141//6 131//6
f 131//6 141//6 142//6 132//6
f 132//6 142//6 143//6 133//6
f 133//6 143//6 144//6 134//6
f 134//6 144//6 145//6 135//6
f 135//6 145//6 146//6 136//6
f 136//6 146//6 147//6 137//6
f 137//6 147//6 148//6 138//6
f 19//6 1//6 9//6 139//6
f 139//6 9//6 10//6 140//6
f 140//6 10//6 11//6 141//6
f 141//6 11//6 12//6 142//6
f 142//6 12//6 13//6 143//6
f 143//6 13//6 14//6 144//6
f 144//6 14//6 15//6 145//6
f 145//6 15//6 16//6 146//6
f 146//6 16//6 17//6 147//6
f 147//6 17//6 18//6 148//6
f 171//6 159//6 160//6 172//6
f 170//6 158//6 159//6 171//6
f 169//6 157//6 158//6 170//6
f 168//6 156//6 157//6 169//6
f 167//6 155//6 156//6 168//6
f 166//6 154//6 155//6 167//6
f 165//6 153//6 154//6 166//6
f 164//6 152//6 153//6 165//6
f 163//6 151//6 152//6 164//6
f 161//6 149//6 151//6 163//6
f 172//6 160//6 150//6 162//6
f 68//6 172//6 162//6 37//6
f 27//6 161//6 163//6 59//6
f 59//6 163//6 164//6 60//6
f 60//6 164//6 165//6 61//6
f 61//6 165//6 166//6 62//6
f 62//6 166//6 167//6 63//6
f 63//6 167//6 168//6 64//6
f 64//6 168//6 169//6 65//6
f 65//6 169//6 170//6 66//6
f 66//6 170//6 171//6 67//6
f 67//6 171//6 172//6 68//6
f 155//2 154//2 174//2 175//2
f 157//2 156//2 176//2 177//2
f 154//2 153//2 173//2 174//2
f 156//2 155//2 175//2 176//2
f 158//2 157//2 177//2 178//2
f 173//7 165//7 166//7 167//7 168//7 169//7 170//7 178//7 177//7 176//7 175//7 174//7
f 158//8 178//8 170//8
f 173//9 153//9 165//9
f 179//6 181//6 182//6 180//6
f 80//1 79//1 179//1 180//1
f 89//2 90//2 182//2 181//2
f 79//5 89//5 181//5 179//5
